# MagicaVoxel @ Ephtracy

# group
o 

# material
mtllib Alien1.mtl
usemtl palette

# normals
vn -1 0 0
vn 1 0 0
vn 0 0 1
vn 0 0 -1
vn 0 -1 0
vn 0 1 0

# texcoords
vt 0.0996094 0.5
vt 0.353516 0.5
vt 0.912109 0.5
vt 0.916016 0.5
vt 0.919922 0.5

# verts
v -0.2 0 0.2
v -0.2 0 0.1
v -0.2 0 0
v -0.2 0 -0.1
v -0.2 0 -0.2
v -0.2 0 -0.3
v -0.2 0.2 0.2
v -0.2 0.2 0.1
v -0.2 0.2 0
v -0.2 0.2 -0.1
v -0.2 0.2 -0.2
v -0.2 0.2 -0.3
v -0.2 0.3 0.2
v -0.2 0.3 0.1
v -0.2 0.3 0
v -0.2 0.3 -0.2
v -0.2 0.3 -0.3
v -0.2 0.4 0.1
v -0.2 0.4 0
v -0.2 0.4 -0.2
v -0.2 0.4 -0.3
v -0.1 0.3 0
v -0.1 0.3 -0.2
v -0.1 0.4 0.2
v -0.1 0.4 0.1
v -0.1 0.4 0
v -0.1 0.4 -0.2
v -0.1 0.5 0.2
v -0.1 0.5 0.1
v -0.1 0.5 0
v 0 0.4 -0.1
v 0 0.4 -0.2
v 0 0.5 -0.1
v 0 0.5 -0.2
v 0.1 0.4 0.2
v 0.1 0.4 0.1
v 0.1 0.4 0
v 0.1 0.5 0.2
v 0.1 0.5 0.1
v 0.1 0.5 0
v 0.2 0 0.2
v 0.2 0 0.1
v 0.2 0 0
v 0.2 0 -0.1
v 0.2 0 -0.2
v 0.2 0 -0.3
v 0.2 0.2 0.2
v 0.2 0.2 0.1
v 0.2 0.2 0
v 0.2 0.2 -0.1
v 0.2 0.2 -0.2
v 0.2 0.2 -0.3
v 0.2 0.3 0.1
v 0.2 0.3 -0.2
v 0.2 0.3 -0.3
v 0.2 0.4 -0.2
v 0.2 0.4 -0.3
v -0.1 0 0.2
v -0.1 0 0.1
v -0.1 0 0
v -0.1 0 -0.1
v -0.1 0 -0.2
v -0.1 0 -0.3
v -0.1 0.2 0.2
v -0.1 0.2 0.1
v -0.1 0.2 0
v -0.1 0.2 -0.1
v -0.1 0.2 -0.2
v -0.1 0.2 -0.3
v -0.1 0.3 0.1
v -0.1 0.3 -0.2
v -0.1 0.3 -0.3
v -0.1 0.4 -0.2
v -0.1 0.4 -0.3
v 0 0.4 0.2
v 0 0.4 0.1
v 0 0.4 0
v 0 0.5 0.2
v 0 0.5 0.1
v 0 0.5 0
v 0.1 0.4 -0.1
v 0.1 0.4 -0.2
v 0.1 0.5 -0.1
v 0.1 0.5 -0.2
v 0.2 0.3 0.1
v 0.2 0.3 0
v 0.2 0.3 -0.1
v 0.2 0.3 -0.2
v 0.2 0.4 0.2
v 0.2 0.4 0.1
v 0.2 0.4 0
v 0.2 0.4 -0.1
v 0.2 0.4 -0.2
v 0.2 0.5 0.2
v 0.2 0.5 0.1
v 0.2 0.5 0
v 0.3 0 0.2
v 0.3 0 0.1
v 0.3 0 0
v 0.3 0 -0.1
v 0.3 0 -0.2
v 0.3 0 -0.3
v 0.3 0.2 0.2
v 0.3 0.2 0.1
v 0.3 0.2 0
v 0.3 0.2 -0.1
v 0.3 0.2 -0.2
v 0.3 0.2 -0.3
v 0.3 0.3 0.2
v 0.3 0.3 0
v 0.3 0.3 -0.1
v 0.3 0.3 -0.2
v 0.3 0.3 -0.3
v 0.3 0.4 0
v 0.3 0.4 -0.1
v 0.3 0.4 -0.2
v 0.3 0.4 -0.3
v -0.2 0 0.2
v -0.2 0.2 0.2
v -0.2 0.3 0.2
v -0.1 0 0.2
v -0.1 0.2 0.2
v -0.1 0.4 0.2
v -0.1 0.5 0.2
v 0 0.4 0.2
v 0 0.5 0.2
v 0.1 0.4 0.2
v 0.1 0.5 0.2
v 0.2 0 0.2
v 0.2 0.2 0.2
v 0.2 0.4 0.2
v 0.2 0.5 0.2
v 0.3 0 0.2
v 0.3 0.2 0.2
v 0.3 0.3 0.2
v -0.2 0.3 0.1
v -0.2 0.4 0.1
v -0.1 0.3 0.1
v -0.1 0.4 0.1
v 0 0.4 0.1
v 0.1 0.4 0.1
v 0.2 0.3 0.1
v 0.2 0.4 0.1
v -0.2 0 0
v -0.2 0.2 0
v -0.1 0 0
v -0.1 0.2 0
v 0.2 0 0
v 0.2 0.2 0
v 0.2 0.3 0
v 0.2 0.4 0
v 0.3 0 0
v 0.3 0.2 0
v 0.3 0.3 0
v 0.3 0.4 0
v 0 0.4 -0.1
v 0 0.5 -0.1
v 0.1 0.4 -0.1
v 0.1 0.5 -0.1
v -0.2 0 -0.2
v -0.2 0.2 -0.2
v -0.2 0.3 -0.2
v -0.2 0.4 -0.2
v -0.1 0 -0.2
v -0.1 0.2 -0.2
v -0.1 0.3 -0.2
v -0.1 0.4 -0.2
v 0.2 0 -0.2
v 0.2 0.2 -0.2
v 0.2 0.3 -0.2
v 0.2 0.4 -0.2
v 0.3 0 -0.2
v 0.3 0.2 -0.2
v 0.3 0.3 -0.2
v 0.3 0.4 -0.2
v -0.2 0 0.1
v -0.2 0.2 0.1
v -0.1 0 0.1
v -0.1 0.2 0.1
v -0.1 0.3 0.1
v 0.2 0 0.1
v 0.2 0.2 0.1
v 0.2 0.3 0.1
v 0.3 0 0.1
v 0.3 0.2 0.1
v -0.2 0.3 0
v -0.2 0.4 0
v -0.1 0.3 0
v -0.1 0.4 0
v -0.1 0.5 0
v 0 0.4 0
v 0 0.5 0
v 0.1 0.4 0
v 0.1 0.5 0
v 0.2 0.4 0
v 0.2 0.5 0
v -0.2 0 -0.1
v -0.2 0.2 -0.1
v -0.1 0 -0.1
v -0.1 0.2 -0.1
v 0.2 0 -0.1
v 0.2 0.2 -0.1
v 0.2 0.3 -0.1
v 0.2 0.4 -0.1
v 0.3 0 -0.1
v 0.3 0.2 -0.1
v 0.3 0.3 -0.1
v 0.3 0.4 -0.1
v -0.1 0.3 -0.2
v -0.1 0.4 -0.2
v 0 0.4 -0.2
v 0 0.5 -0.2
v 0.1 0.4 -0.2
v 0.1 0.5 -0.2
v 0.2 0.3 -0.2
v 0.2 0.4 -0.2
v -0.2 0 -0.3
v -0.2 0.2 -0.3
v -0.2 0.3 -0.3
v -0.2 0.4 -0.3
v -0.1 0 -0.3
v -0.1 0.2 -0.3
v -0.1 0.3 -0.3
v -0.1 0.4 -0.3
v 0.2 0 -0.3
v 0.2 0.2 -0.3
v 0.2 0.3 -0.3
v 0.2 0.4 -0.3
v 0.3 0 -0.3
v 0.3 0.2 -0.3
v 0.3 0.3 -0.3
v 0.3 0.4 -0.3
v -0.2 0 0.2
v -0.1 0 0.2
v 0.2 0 0.2
v 0.3 0 0.2
v -0.2 0 0.1
v -0.1 0 0.1
v 0.2 0 0.1
v 0.3 0 0.1
v -0.2 0 0
v -0.1 0 0
v 0.2 0 0
v 0.3 0 0
v -0.2 0 -0.1
v -0.1 0 -0.1
v 0.2 0 -0.1
v 0.3 0 -0.1
v -0.2 0 -0.2
v -0.1 0 -0.2
v 0.2 0 -0.2
v 0.3 0 -0.2
v -0.2 0 -0.3
v -0.1 0 -0.3
v 0.2 0 -0.3
v 0.3 0 -0.3
v -0.1 0.2 0.2
v 0.2 0.2 0.2
v -0.2 0.2 0.1
v -0.1 0.2 0.1
v 0.2 0.2 0.1
v 0.3 0.2 0.1
v -0.2 0.2 0
v -0.1 0.2 0
v 0.2 0.2 0
v 0.3 0.2 0
v -0.2 0.2 -0.1
v -0.1 0.2 -0.1
v 0.2 0.2 -0.1
v 0.3 0.2 -0.1
v -0.2 0.2 -0.2
v -0.1 0.2 -0.2
v 0.2 0.2 -0.2
v 0.3 0.2 -0.2
v -0.1 0.2 -0.3
v 0.2 0.2 -0.3
v -0.1 0.3 0.1
v 0.2 0.3 0.1
v -0.1 0.3 -0.2
v 0.2 0.3 -0.2
v -0.1 0.4 0.2
v 0 0.4 0.2
v 0.1 0.4 0.2
v 0.2 0.4 0.2
v -0.1 0.4 0.1
v 0 0.4 0.1
v 0.1 0.4 0.1
v 0.2 0.4 0.1
v -0.2 0.3 0.2
v 0.3 0.3 0.2
v -0.2 0.3 0.1
v -0.1 0.3 0.1
v 0.2 0.3 0.1
v -0.2 0.3 0
v -0.1 0.3 0
v 0.2 0.3 0
v 0.3 0.3 0
v 0.2 0.3 -0.1
v 0.3 0.3 -0.1
v -0.2 0.3 -0.2
v -0.1 0.3 -0.2
v 0.2 0.3 -0.2
v 0.3 0.3 -0.2
v -0.1 0.3 -0.3
v 0.2 0.3 -0.3
v -0.2 0.4 0.1
v -0.1 0.4 0.1
v 0 0.4 0.1
v 0.1 0.4 0.1
v -0.2 0.4 0
v -0.1 0.4 0
v 0 0.4 0
v 0.1 0.4 0
v 0.2 0.4 0
v 0.3 0.4 0
v 0 0.4 -0.1
v 0.1 0.4 -0.1
v 0.2 0.4 -0.1
v 0.3 0.4 -0.1
v -0.2 0.4 -0.2
v -0.1 0.4 -0.2
v 0 0.4 -0.2
v 0.1 0.4 -0.2
v 0.2 0.4 -0.2
v 0.3 0.4 -0.2
v -0.2 0.4 -0.3
v -0.1 0.4 -0.3
v 0.2 0.4 -0.3
v 0.3 0.4 -0.3
v -0.1 0.5 0.2
v 0 0.5 0.2
v 0.1 0.5 0.2
v 0.2 0.5 0.2
v -0.1 0.5 0.1
v 0 0.5 0.1
v 0.1 0.5 0.1
v 0.2 0.5 0.1
v -0.1 0.5 0
v 0 0.5 0
v 0.1 0.5 0
v 0.2 0.5 0
v 0 0.5 -0.1
v 0.1 0.5 -0.1
v 0 0.5 -0.2
v 0.1 0.5 -0.2

# faces
f 7/4/1 2/4/1 1/4/1
f 8/4/1 2/4/1 7/4/1
f 9/4/1 4/4/1 3/4/1
f 10/4/1 4/4/1 9/4/1
f 11/4/1 6/4/1 5/4/1
f 12/4/1 6/4/1 11/4/1
f 13/3/1 10/3/1 9/3/1
f 13/3/1 8/3/1 7/3/1
f 13/3/1 12/3/1 11/3/1
f 13/3/1 11/3/1 10/3/1
f 13/3/1 9/3/1 8/3/1
f 14/3/1 12/3/1 13/3/1
f 15/3/1 12/3/1 14/3/1
f 16/3/1 12/3/1 15/3/1
f 17/3/1 12/3/1 16/3/1
f 18/2/1 15/2/1 14/2/1
f 19/2/1 15/2/1 18/2/1
f 20/2/1 17/2/1 16/2/1
f 21/2/1 17/2/1 20/2/1
f 26/5/1 23/5/1 22/5/1
f 27/5/1 23/5/1 26/5/1
f 28/1/1 25/1/1 24/1/1
f 29/5/1 26/5/1 25/5/1
f 29/1/1 25/1/1 28/1/1
f 30/5/1 26/5/1 29/5/1
f 33/2/1 32/2/1 31/2/1
f 34/2/1 32/2/1 33/2/1
f 38/1/1 36/1/1 35/1/1
f 39/5/1 37/5/1 36/5/1
f 39/1/1 36/1/1 38/1/1
f 40/5/1 37/5/1 39/5/1
f 47/4/1 42/4/1 41/4/1
f 48/4/1 42/4/1 47/4/1
f 49/4/1 44/4/1 43/4/1
f 50/4/1 44/4/1 49/4/1
f 51/4/1 46/4/1 45/4/1
f 52/4/1 46/4/1 51/4/1
f 53/3/1 50/3/1 49/3/1
f 53/3/1 51/3/1 50/3/1
f 53/3/1 49/3/1 48/3/1
f 54/3/1 51/3/1 53/3/1
f 56/2/1 55/2/1 54/2/1
f 57/2/1 55/2/1 56/2/1
f 58/4/2 59/4/2 64/4/2
f 64/4/2 59/4/2 65/4/2
f 60/4/2 61/4/2 66/4/2
f 66/4/2 61/4/2 67/4/2
f 62/4/2 63/4/2 68/4/2
f 68/4/2 63/4/2 69/4/2
f 66/3/2 67/3/2 70/3/2
f 67/3/2 68/3/2 70/3/2
f 65/3/2 66/3/2 70/3/2
f 70/3/2 68/3/2 71/3/2
f 71/2/2 72/2/2 73/2/2
f 73/2/2 72/2/2 74/2/2
f 75/1/2 76/1/2 78/1/2
f 76/5/2 77/5/2 79/5/2
f 78/1/2 76/1/2 79/1/2
f 79/5/2 77/5/2 80/5/2
f 81/2/2 82/2/2 83/2/2
f 83/2/2 82/2/2 84/2/2
f 85/5/2 86/5/2 90/5/2
f 90/5/2 86/5/2 91/5/2
f 87/5/2 88/5/2 92/5/2
f 92/5/2 88/5/2 93/5/2
f 89/1/2 90/1/2 94/1/2
f 90/5/2 91/5/2 95/5/2
f 94/1/2 90/1/2 95/1/2
f 95/5/2 91/5/2 96/5/2
f 97/4/2 98/4/2 103/4/2
f 103/4/2 98/4/2 104/4/2
f 99/4/2 100/4/2 105/4/2
f 105/4/2 100/4/2 106/4/2
f 101/4/2 102/4/2 107/4/2
f 107/4/2 102/4/2 108/4/2
f 105/3/2 106/3/2 109/3/2
f 103/3/2 104/3/2 109/3/2
f 107/3/2 108/3/2 109/3/2
f 106/3/2 107/3/2 109/3/2
f 104/3/2 105/3/2 109/3/2
f 109/3/2 108/3/2 110/3/2
f 110/3/2 108/3/2 111/3/2
f 111/3/2 108/3/2 112/3/2
f 112/3/2 108/3/2 113/3/2
f 110/2/2 111/2/2 114/2/2
f 114/2/2 111/2/2 115/2/2
f 112/2/2 113/2/2 116/2/2
f 116/2/2 113/2/2 117/2/2
f 121/4/3 119/4/3 118/4/3
f 122/3/3 120/3/3 119/3/3
f 122/4/3 119/4/3 121/4/3
f 125/1/3 124/1/3 123/1/3
f 126/1/3 124/1/3 125/1/3
f 130/3/3 120/3/3 122/3/3
f 131/1/3 128/1/3 127/1/3
f 132/1/3 128/1/3 131/1/3
f 133/4/3 130/4/3 129/4/3
f 134/3/3 120/3/3 130/3/3
f 134/4/3 130/4/3 133/4/3
f 135/3/3 120/3/3 134/3/3
f 138/2/3 137/2/3 136/2/3
f 139/2/3 137/2/3 138/2/3
f 140/5/3 139/5/3 138/5/3
f 141/5/3 140/5/3 138/5/3
f 142/5/3 141/5/3 138/5/3
f 143/5/3 141/5/3 142/5/3
f 146/4/3 145/4/3 144/4/3
f 147/4/3 145/4/3 146/4/3
f 152/4/3 149/4/3 148/4/3
f 153/4/3 149/4/3 152/4/3
f 154/2/3 151/2/3 150/2/3
f 155/2/3 151/2/3 154/2/3
f 158/2/3 157/2/3 156/2/3
f 159/2/3 157/2/3 158/2/3
f 164/4/3 161/4/3 160/4/3
f 165/4/3 161/4/3 164/4/3
f 166/2/3 163/2/3 162/2/3
f 167/2/3 163/2/3 166/2/3
f 169/3/3 166/3/3 165/3/3
f 170/3/3 166/3/3 169/3/3
f 172/4/3 169/4/3 168/4/3
f 173/4/3 169/4/3 172/4/3
f 174/2/3 171/2/3 170/2/3
f 175/2/3 171/2/3 174/2/3
f 176/4/4 177/4/4 178/4/4
f 178/4/4 177/4/4 179/4/4
f 179/3/4 180/3/4 182/3/4
f 182/3/4 180/3/4 183/3/4
f 181/4/4 182/4/4 184/4/4
f 184/4/4 182/4/4 185/4/4
f 186/2/4 187/2/4 188/2/4
f 188/2/4 187/2/4 189/2/4
f 189/5/4 190/5/4 191/5/4
f 191/5/4 190/5/4 192/5/4
f 193/5/4 194/5/4 195/5/4
f 195/5/4 194/5/4 196/5/4
f 197/4/4 198/4/4 199/4/4
f 199/4/4 198/4/4 200/4/4
f 201/4/4 202/4/4 205/4/4
f 205/4/4 202/4/4 206/4/4
f 203/2/4 204/2/4 207/2/4
f 207/2/4 204/2/4 208/2/4
f 209/5/4 210/5/4 211/5/4
f 209/5/4 211/5/4 213/5/4
f 211/2/4 212/2/4 213/2/4
f 213/2/4 212/2/4 214/2/4
f 209/5/4 213/5/4 215/5/4
f 215/5/4 213/5/4 216/5/4
f 217/4/4 218/4/4 221/4/4
f 218/3/4 219/3/4 222/3/4
f 221/4/4 218/4/4 222/4/4
f 219/2/4 220/2/4 223/2/4
f 222/3/4 219/3/4 223/3/4
f 223/2/4 220/2/4 224/2/4
f 222/3/4 223/3/4 226/3/4
f 226/3/4 223/3/4 227/3/4
f 225/4/4 226/4/4 229/4/4
f 226/3/4 227/3/4 230/3/4
f 229/4/4 226/4/4 230/4/4
f 227/2/4 228/2/4 231/2/4
f 230/3/4 227/3/4 231/3/4
f 231/2/4 228/2/4 232/2/4
f 237/4/5 234/4/5 233/4/5
f 238/4/5 234/4/5 237/4/5
f 239/4/5 236/4/5 235/4/5
f 240/4/5 236/4/5 239/4/5
f 245/4/5 242/4/5 241/4/5
f 246/4/5 242/4/5 245/4/5
f 247/4/5 244/4/5 243/4/5
f 248/4/5 244/4/5 247/4/5
f 253/4/5 250/4/5 249/4/5
f 254/4/5 250/4/5 253/4/5
f 255/4/5 252/4/5 251/4/5
f 256/4/5 252/4/5 255/4/5
f 260/3/5 258/3/5 257/3/5
f 261/3/5 258/3/5 260/3/5
f 263/3/5 260/3/5 259/3/5
f 264/3/5 260/3/5 263/3/5
f 265/3/5 262/3/5 261/3/5
f 266/3/5 262/3/5 265/3/5
f 271/3/5 268/3/5 267/3/5
f 272/3/5 268/3/5 271/3/5
f 273/3/5 270/3/5 269/3/5
f 274/3/5 270/3/5 273/3/5
f 275/3/5 273/3/5 272/3/5
f 276/3/5 273/3/5 275/3/5
f 279/5/5 278/5/5 277/5/5
f 280/5/5 278/5/5 279/5/5
f 285/1/5 282/1/5 281/1/5
f 286/1/5 282/1/5 285/1/5
f 287/1/5 284/1/5 283/1/5
f 288/1/5 284/1/5 287/1/5
f 289/3/6 290/3/6 291/3/6
f 291/3/6 290/3/6 292/3/6
f 292/3/6 290/3/6 293/3/6
f 293/3/6 290/3/6 296/3/6
f 296/3/6 290/3/6 297/3/6
f 294/3/6 295/3/6 300/3/6
f 300/3/6 295/3/6 301/3/6
f 298/3/6 299/3/6 302/3/6
f 302/3/6 299/3/6 303/3/6
f 301/3/6 302/3/6 304/3/6
f 304/3/6 302/3/6 305/3/6
f 306/2/6 307/2/6 310/2/6
f 310/2/6 307/2/6 311/2/6
f 308/5/6 309/5/6 312/5/6
f 312/5/6 309/5/6 313/5/6
f 311/5/6 312/5/6 316/5/6
f 313/5/6 314/5/6 316/5/6
f 312/5/6 313/5/6 316/5/6
f 316/5/6 314/5/6 317/5/6
f 314/2/6 315/2/6 318/2/6
f 317/5/6 314/5/6 318/5/6
f 318/2/6 315/2/6 319/2/6
f 311/5/6 316/5/6 321/5/6
f 321/5/6 316/5/6 322/5/6
f 317/5/6 318/5/6 323/5/6
f 323/5/6 318/5/6 324/5/6
f 320/2/6 321/2/6 326/2/6
f 326/2/6 321/2/6 327/2/6
f 324/2/6 325/2/6 328/2/6
f 328/2/6 325/2/6 329/2/6
f 330/1/6 331/1/6 334/1/6
f 334/1/6 331/1/6 335/1/6
f 332/1/6 333/1/6 336/1/6
f 336/1/6 333/1/6 337/1/6
f 334/5/6 335/5/6 338/5/6
f 338/5/6 335/5/6 339/5/6
f 336/5/6 337/5/6 340/5/6
f 340/5/6 337/5/6 341/5/6
f 342/2/6 343/2/6 344/2/6
f 344/2/6 343/2/6 345/2/6
