# MagicaVoxel @ Ephtracy

# group
o 

# material
mtllib Alien4.mtl
usemtl palette

# normals
vn -1 0 0
vn 1 0 0
vn 0 0 1
vn 0 0 -1
vn 0 -1 0
vn 0 1 0

# texcoords
vt 0.134766 0.5
vt 0.353516 0.5
vt 0.357422 0.5

# verts
v -0.1 0 0.5
v -0.1 0 -0.5
v -0.1 0.1 0.2
v -0.1 0.1 0.1
v -0.1 0.1 -0.1
v -0.1 0.1 -0.2
v -0.1 0.2 0.5
v -0.1 0.2 0.2
v -0.1 0.2 0.1
v -0.1 0.2 -0.1
v -0.1 0.2 -0.2
v -0.1 0.2 -0.5
v 0 0.2 0.3
v 0 0.2 0.2
v 0 0.2 -0.2
v 0 0.2 -0.3
v 0 0.4 0.3
v 0 0.4 0.2
v 0 0.4 -0.2
v 0 0.4 -0.3
v 0.1 0 0.2
v 0.1 0 0.1
v 0.1 0 -0.1
v 0.1 0 -0.2
v 0.1 0.1 0.2
v 0.1 0.1 0.1
v 0.1 0.1 -0.1
v 0.1 0.1 -0.2
v 0 0 0.2
v 0 0 0.1
v 0 0 -0.1
v 0 0 -0.2
v 0 0.1 0.2
v 0 0.1 0.1
v 0 0.1 -0.1
v 0 0.1 -0.2
v 0.1 0.2 0.3
v 0.1 0.2 0.2
v 0.1 0.2 -0.2
v 0.1 0.2 -0.3
v 0.1 0.3 0.3
v 0.1 0.3 0.2
v 0.1 0.3 -0.2
v 0.1 0.3 -0.3
v 0.2 0 0.5
v 0.2 0 -0.5
v 0.2 0.1 0.2
v 0.2 0.1 0.1
v 0.2 0.1 -0.1
v 0.2 0.1 -0.2
v 0.2 0.2 0.5
v 0.2 0.2 0.2
v 0.2 0.2 0.1
v 0.2 0.2 -0.1
v 0.2 0.2 -0.2
v 0.2 0.2 -0.5
v 0.3 0.3 0.3
v 0.3 0.3 0.2
v 0.3 0.3 -0.2
v 0.3 0.3 -0.3
v 0.3 0.4 0.3
v 0.3 0.4 0.2
v 0.3 0.4 -0.2
v 0.3 0.4 -0.3
v -0.1 0 0.5
v -0.1 0.2 0.5
v 0.2 0 0.5
v 0.2 0.2 0.5
v 0 0.2 0.3
v 0 0.4 0.3
v 0.1 0.2 0.3
v 0.1 0.3 0.3
v 0.2 0.3 0.3
v 0.2 0.4 0.3
v 0.3 0.3 0.3
v 0.3 0.4 0.3
v -0.1 0.1 0.1
v -0.1 0.2 0.1
v 0 0 0.1
v 0 0.1 0.1
v 0.1 0 0.1
v 0.1 0.1 0.1
v 0.2 0.1 0.1
v 0.2 0.2 0.1
v -0.1 0.1 -0.2
v -0.1 0.2 -0.2
v 0 0 -0.2
v 0 0.1 -0.2
v 0 0.2 -0.2
v 0 0.4 -0.2
v 0.1 0 -0.2
v 0.1 0.1 -0.2
v 0.1 0.2 -0.2
v 0.1 0.3 -0.2
v 0.2 0.1 -0.2
v 0.2 0.2 -0.2
v 0.2 0.3 -0.2
v 0.2 0.4 -0.2
v 0.3 0.3 -0.2
v 0.3 0.4 -0.2
v -0.1 0.1 0.2
v -0.1 0.2 0.2
v 0 0 0.2
v 0 0.1 0.2
v 0 0.2 0.2
v 0 0.4 0.2
v 0.1 0 0.2
v 0.1 0.1 0.2
v 0.1 0.2 0.2
v 0.1 0.3 0.2
v 0.2 0.1 0.2
v 0.2 0.2 0.2
v 0.2 0.3 0.2
v 0.2 0.4 0.2
v 0.3 0.3 0.2
v 0.3 0.4 0.2
v -0.1 0.1 -0.1
v -0.1 0.2 -0.1
v 0 0 -0.1
v 0 0.1 -0.1
v 0.1 0 -0.1
v 0.1 0.1 -0.1
v 0.2 0.1 -0.1
v 0.2 0.2 -0.1
v 0 0.2 -0.3
v 0 0.4 -0.3
v 0.1 0.2 -0.3
v 0.1 0.3 -0.3
v 0.2 0.3 -0.3
v 0.2 0.4 -0.3
v 0.3 0.3 -0.3
v 0.3 0.4 -0.3
v -0.1 0 -0.5
v -0.1 0.2 -0.5
v 0.2 0 -0.5
v 0.2 0.2 -0.5
v -0.1 0 0.5
v 0.2 0 0.5
v 0 0 0.2
v 0.1 0 0.2
v 0 0 0.1
v 0.1 0 0.1
v 0 0 -0.1
v 0.1 0 -0.1
v 0 0 -0.2
v 0.1 0 -0.2
v -0.1 0 -0.5
v 0.2 0 -0.5
v 0.1 0.3 0.3
v 0.2 0.3 0.3
v 0.3 0.3 0.3
v 0.1 0.3 0.2
v 0.2 0.3 0.2
v 0.3 0.3 0.2
v 0.1 0.3 -0.2
v 0.2 0.3 -0.2
v 0.3 0.3 -0.2
v 0.1 0.3 -0.3
v 0.2 0.3 -0.3
v 0.3 0.3 -0.3
v -0.1 0.1 0.2
v 0 0.1 0.2
v 0.1 0.1 0.2
v 0.2 0.1 0.2
v -0.1 0.1 0.1
v 0 0.1 0.1
v 0.1 0.1 0.1
v 0.2 0.1 0.1
v -0.1 0.1 -0.1
v 0 0.1 -0.1
v 0.1 0.1 -0.1
v 0.2 0.1 -0.1
v -0.1 0.1 -0.2
v 0 0.1 -0.2
v 0.1 0.1 -0.2
v 0.2 0.1 -0.2
v -0.1 0.2 0.5
v 0.2 0.2 0.5
v 0 0.2 0.3
v 0.1 0.2 0.3
v -0.1 0.2 0.2
v 0 0.2 0.2
v 0.1 0.2 0.2
v 0.2 0.2 0.2
v -0.1 0.2 0.1
v 0.2 0.2 0.1
v -0.1 0.2 -0.1
v 0.2 0.2 -0.1
v -0.1 0.2 -0.2
v 0 0.2 -0.2
v 0.1 0.2 -0.2
v 0.2 0.2 -0.2
v 0 0.2 -0.3
v 0.1 0.2 -0.3
v -0.1 0.2 -0.5
v 0.2 0.2 -0.5
v 0 0.4 0.3
v 0.2 0.4 0.3
v 0.3 0.4 0.3
v 0 0.4 0.2
v 0.2 0.4 0.2
v 0.3 0.4 0.2
v 0 0.4 -0.2
v 0.2 0.4 -0.2
v 0.3 0.4 -0.2
v 0 0.4 -0.3
v 0.2 0.4 -0.3
v 0.3 0.4 -0.3

# faces
f 3/2/1 2/2/1 1/2/1
f 4/2/1 2/2/1 3/2/1
f 5/2/1 2/2/1 4/2/1
f 6/2/1 2/2/1 5/2/1
f 7/2/1 3/2/1 1/2/1
f 8/2/1 3/2/1 7/2/1
f 9/2/1 5/2/1 4/2/1
f 10/2/1 5/2/1 9/2/1
f 11/2/1 2/2/1 6/2/1
f 12/2/1 2/2/1 11/2/1
f 17/3/1 14/3/1 13/3/1
f 18/3/1 14/3/1 17/3/1
f 19/3/1 16/3/1 15/3/1
f 20/3/1 16/3/1 19/3/1
f 25/2/1 22/2/1 21/2/1
f 26/2/1 22/2/1 25/2/1
f 27/2/1 24/2/1 23/2/1
f 28/2/1 24/2/1 27/2/1
f 29/2/2 30/2/2 33/2/2
f 33/2/2 30/2/2 34/2/2
f 31/2/2 32/2/2 35/2/2
f 35/2/2 32/2/2 36/2/2
f 37/3/2 38/3/2 41/3/2
f 41/3/2 38/3/2 42/3/2
f 39/3/2 40/3/2 43/3/2
f 43/3/2 40/3/2 44/3/2
f 45/2/2 46/2/2 47/2/2
f 47/2/2 46/2/2 48/2/2
f 48/2/2 46/2/2 49/2/2
f 49/2/2 46/2/2 50/2/2
f 45/2/2 47/2/2 51/2/2
f 51/2/2 47/2/2 52/2/2
f 48/2/2 49/2/2 53/2/2
f 53/2/2 49/2/2 54/2/2
f 50/2/2 46/2/2 55/2/2
f 55/2/2 46/2/2 56/2/2
f 57/1/2 58/1/2 61/1/2
f 61/1/2 58/1/2 62/1/2
f 59/1/2 60/1/2 63/1/2
f 63/1/2 60/1/2 64/1/2
f 67/2/3 66/2/3 65/2/3
f 68/2/3 66/2/3 67/2/3
f 71/3/3 70/3/3 69/3/3
f 72/3/3 70/3/3 71/3/3
f 73/3/3 70/3/3 72/3/3
f 74/3/3 70/3/3 73/3/3
f 75/1/3 74/1/3 73/1/3
f 76/1/3 74/1/3 75/1/3
f 80/2/3 78/2/3 77/2/3
f 81/2/3 80/2/3 79/2/3
f 82/2/3 78/2/3 80/2/3
f 82/2/3 80/2/3 81/2/3
f 83/2/3 78/2/3 82/2/3
f 84/2/3 78/2/3 83/2/3
f 88/2/3 86/2/3 85/2/3
f 89/2/3 86/2/3 88/2/3
f 91/2/3 88/2/3 87/2/3
f 91/2/3 89/2/3 88/2/3
f 92/2/3 89/2/3 91/2/3
f 93/3/3 90/3/3 89/3/3
f 93/2/3 89/2/3 92/2/3
f 94/3/3 90/3/3 93/3/3
f 95/2/3 93/2/3 92/2/3
f 96/2/3 93/2/3 95/2/3
f 97/3/3 90/3/3 94/3/3
f 98/3/3 90/3/3 97/3/3
f 99/1/3 98/1/3 97/1/3
f 100/1/3 98/1/3 99/1/3
f 101/2/4 102/2/4 104/2/4
f 104/2/4 102/2/4 105/2/4
f 103/2/4 104/2/4 107/2/4
f 104/2/4 105/2/4 107/2/4
f 107/2/4 105/2/4 108/2/4
f 105/3/4 106/3/4 109/3/4
f 108/2/4 105/2/4 109/2/4
f 109/3/4 106/3/4 110/3/4
f 108/2/4 109/2/4 111/2/4
f 111/2/4 109/2/4 112/2/4
f 110/3/4 106/3/4 113/3/4
f 113/3/4 106/3/4 114/3/4
f 113/1/4 114/1/4 115/1/4
f 115/1/4 114/1/4 116/1/4
f 117/2/4 118/2/4 120/2/4
f 119/2/4 120/2/4 121/2/4
f 120/2/4 118/2/4 122/2/4
f 121/2/4 120/2/4 122/2/4
f 122/2/4 118/2/4 123/2/4
f 123/2/4 118/2/4 124/2/4
f 125/3/4 126/3/4 127/3/4
f 127/3/4 126/3/4 128/3/4
f 128/3/4 126/3/4 129/3/4
f 129/3/4 126/3/4 130/3/4
f 129/1/4 130/1/4 131/1/4
f 131/1/4 130/1/4 132/1/4
f 133/2/4 134/2/4 135/2/4
f 135/2/4 134/2/4 136/2/4
f 139/2/5 138/2/5 137/2/5
f 140/2/5 138/2/5 139/2/5
f 141/2/5 139/2/5 137/2/5
f 142/2/5 138/2/5 140/2/5
f 143/2/5 141/2/5 137/2/5
f 143/2/5 142/2/5 141/2/5
f 144/2/5 138/2/5 142/2/5
f 144/2/5 142/2/5 143/2/5
f 145/2/5 143/2/5 137/2/5
f 146/2/5 138/2/5 144/2/5
f 147/2/5 145/2/5 137/2/5
f 147/2/5 146/2/5 145/2/5
f 148/2/5 138/2/5 146/2/5
f 148/2/5 146/2/5 147/2/5
f 152/3/5 150/3/5 149/3/5
f 153/1/5 151/1/5 150/1/5
f 153/3/5 150/3/5 152/3/5
f 154/1/5 151/1/5 153/1/5
f 158/3/5 156/3/5 155/3/5
f 159/1/5 157/1/5 156/1/5
f 159/3/5 156/3/5 158/3/5
f 160/1/5 157/1/5 159/1/5
f 161/2/6 162/2/6 165/2/6
f 165/2/6 162/2/6 166/2/6
f 163/2/6 164/2/6 167/2/6
f 167/2/6 164/2/6 168/2/6
f 169/2/6 170/2/6 173/2/6
f 173/2/6 170/2/6 174/2/6
f 171/2/6 172/2/6 175/2/6
f 175/2/6 172/2/6 176/2/6
f 177/2/6 178/2/6 179/2/6
f 179/2/6 178/2/6 180/2/6
f 177/2/6 179/2/6 181/2/6
f 181/2/6 179/2/6 182/2/6
f 180/2/6 178/2/6 183/2/6
f 183/2/6 178/2/6 184/2/6
f 185/2/6 186/2/6 187/2/6
f 187/2/6 186/2/6 188/2/6
f 189/2/6 190/2/6 193/2/6
f 191/2/6 192/2/6 194/2/6
f 189/2/6 193/2/6 195/2/6
f 193/2/6 194/2/6 195/2/6
f 194/2/6 192/2/6 196/2/6
f 195/2/6 194/2/6 196/2/6
f 197/3/6 198/3/6 200/3/6
f 198/1/6 199/1/6 201/1/6
f 200/3/6 198/3/6 201/3/6
f 201/1/6 199/1/6 202/1/6
f 203/3/6 204/3/6 206/3/6
f 204/1/6 205/1/6 207/1/6
f 206/3/6 204/3/6 207/3/6
f 207/1/6 205/1/6 208/1/6
