# MagicaVoxel @ Ephtracy

# group
o 

# material
mtllib Alien2.mtl
usemtl palette

# normals
vn -1 0 0
vn 1 0 0
vn 0 0 1
vn 0 0 -1
vn 0 -1 0
vn 0 1 0

# texcoords
vt 0.103516 0.5
vt 0.115234 0.5
vt 0.134766 0.5

# verts
v -0.2 0 0.2
v -0.2 0 0.1
v -0.2 0 -0.2
v -0.2 0 -0.3
v -0.2 0.2 0.2
v -0.2 0.2 0.1
v -0.2 0.2 -0.2
v -0.2 0.2 -0.3
v -0.2 0.4 0.2
v -0.2 0.4 0.1
v -0.2 0.4 -0.2
v -0.2 0.4 -0.3
v 0 0.2 0.1
v 0 0.2 -0.2
v 0 0.3 0.1
v 0 0.3 -0.2
v 0.1 0.3 0.2
v 0.1 0.3 0.1
v 0.1 0.3 -0.2
v 0.1 0.3 -0.3
v 0.1 0.4 0.2
v 0.1 0.4 0.1
v 0.1 0.4 -0.2
v 0.1 0.4 -0.3
v 0.2 0 0.2
v 0.2 0 0.1
v 0.2 0 -0.2
v 0.2 0 -0.3
v 0.2 0.2 0.2
v 0.2 0.2 0.1
v 0.2 0.2 0
v 0.2 0.2 -0.1
v 0.2 0.2 -0.2
v 0.2 0.2 -0.3
v 0.2 0.3 0.1
v 0.2 0.3 0
v 0.2 0.3 -0.1
v 0.2 0.3 -0.2
v -0.1 0 0.2
v -0.1 0 0.1
v -0.1 0 -0.2
v -0.1 0 -0.3
v -0.1 0.2 0.2
v -0.1 0.2 0.1
v -0.1 0.2 -0.2
v -0.1 0.2 -0.3
v -0.1 0.3 0.2
v -0.1 0.3 0.1
v -0.1 0.3 -0.2
v -0.1 0.3 -0.3
v -0.1 0.4 0.2
v -0.1 0.4 0.1
v -0.1 0.4 -0.2
v -0.1 0.4 -0.3
v 0.1 0.2 0.1
v 0.1 0.2 0
v 0.1 0.2 -0.1
v 0.1 0.2 -0.2
v 0.1 0.3 0.1
v 0.1 0.3 0
v 0.1 0.3 -0.1
v 0.1 0.3 -0.2
v 0.3 0 0.2
v 0.3 0 0.1
v 0.3 0 -0.2
v 0.3 0 -0.3
v 0.3 0.2 0.2
v 0.3 0.2 0.1
v 0.3 0.2 -0.2
v 0.3 0.2 -0.3
v 0.3 0.3 0.2
v 0.3 0.3 0.1
v 0.3 0.3 -0.2
v 0.3 0.3 -0.3
v 0.3 0.4 0.2
v 0.3 0.4 0.1
v 0.3 0.4 -0.2
v 0.3 0.4 -0.3
v -0.2 0 0.2
v -0.2 0.2 0.2
v -0.2 0.4 0.2
v -0.1 0 0.2
v -0.1 0.2 0.2
v -0.1 0.3 0.2
v -0.1 0.4 0.2
v 0.1 0.3 0.2
v 0.1 0.4 0.2
v 0.2 0 0.2
v 0.2 0.2 0.2
v 0.2 0.3 0.2
v 0.2 0.4 0.2
v 0.3 0 0.2
v 0.3 0.2 0.2
v 0.3 0.3 0.2
v 0.3 0.4 0.2
v 0.1 0.2 0
v 0.1 0.3 0
v 0.2 0.2 0
v 0.2 0.3 0
v -0.2 0 -0.2
v -0.2 0.2 -0.2
v -0.2 0.4 -0.2
v -0.1 0 -0.2
v -0.1 0.2 -0.2
v -0.1 0.3 -0.2
v -0.1 0.4 -0.2
v 0 0.2 -0.2
v 0 0.3 -0.2
v 0.1 0.2 -0.2
v 0.1 0.3 -0.2
v 0.1 0.4 -0.2
v 0.2 0 -0.2
v 0.2 0.2 -0.2
v 0.2 0.3 -0.2
v 0.2 0.4 -0.2
v 0.3 0 -0.2
v 0.3 0.2 -0.2
v 0.3 0.3 -0.2
v 0.3 0.4 -0.2
v -0.2 0 0.1
v -0.2 0.2 0.1
v -0.2 0.4 0.1
v -0.1 0 0.1
v -0.1 0.2 0.1
v -0.1 0.3 0.1
v -0.1 0.4 0.1
v 0 0.2 0.1
v 0 0.3 0.1
v 0.1 0.2 0.1
v 0.1 0.3 0.1
v 0.1 0.4 0.1
v 0.2 0 0.1
v 0.2 0.2 0.1
v 0.2 0.3 0.1
v 0.2 0.4 0.1
v 0.3 0 0.1
v 0.3 0.2 0.1
v 0.3 0.3 0.1
v 0.3 0.4 0.1
v 0.1 0.2 -0.1
v 0.1 0.3 -0.1
v 0.2 0.2 -0.1
v 0.2 0.3 -0.1
v -0.2 0 -0.3
v -0.2 0.2 -0.3
v -0.2 0.4 -0.3
v -0.1 0 -0.3
v -0.1 0.2 -0.3
v -0.1 0.3 -0.3
v -0.1 0.4 -0.3
v 0.1 0.3 -0.3
v 0.1 0.4 -0.3
v 0.2 0 -0.3
v 0.2 0.2 -0.3
v 0.2 0.3 -0.3
v 0.2 0.4 -0.3
v 0.3 0 -0.3
v 0.3 0.2 -0.3
v 0.3 0.3 -0.3
v 0.3 0.4 -0.3
v -0.2 0 0.2
v -0.1 0 0.2
v 0.2 0 0.2
v 0.3 0 0.2
v -0.2 0 0.1
v -0.1 0 0.1
v 0.2 0 0.1
v 0.3 0 0.1
v -0.2 0 -0.2
v -0.1 0 -0.2
v 0.2 0 -0.2
v 0.3 0 -0.2
v -0.2 0 -0.3
v -0.1 0 -0.3
v 0.2 0 -0.3
v 0.3 0 -0.3
v -0.1 0.2 0.2
v 0.2 0.2 0.2
v -0.1 0.2 0.1
v 0 0.2 0.1
v 0.1 0.2 0.1
v 0.2 0.2 0.1
v 0.3 0.2 0.1
v 0.1 0.2 0
v 0.2 0.2 0
v 0.1 0.2 -0.1
v 0.2 0.2 -0.1
v -0.1 0.2 -0.2
v 0 0.2 -0.2
v 0.1 0.2 -0.2
v 0.2 0.2 -0.2
v 0.3 0.2 -0.2
v -0.1 0.2 -0.3
v 0.2 0.2 -0.3
v -0.1 0.3 0.2
v 0.1 0.3 0.2
v -0.1 0.3 0.1
v 0 0.3 0.1
v 0.1 0.3 0.1
v 0.2 0.3 0.1
v 0.3 0.3 0.1
v 0.1 0.3 0
v 0.2 0.3 0
v 0.1 0.3 -0.1
v 0.2 0.3 -0.1
v -0.1 0.3 -0.2
v 0 0.3 -0.2
v 0.1 0.3 -0.2
v 0.2 0.3 -0.2
v 0.3 0.3 -0.2
v -0.1 0.3 -0.3
v 0.1 0.3 -0.3
v -0.2 0.4 0.2
v -0.1 0.4 0.2
v 0.1 0.4 0.2
v 0.2 0.4 0.2
v 0.3 0.4 0.2
v -0.2 0.4 0.1
v -0.1 0.4 0.1
v 0.1 0.4 0.1
v 0.2 0.4 0.1
v 0.3 0.4 0.1
v -0.2 0.4 -0.2
v -0.1 0.4 -0.2
v 0.1 0.4 -0.2
v 0.2 0.4 -0.2
v 0.3 0.4 -0.2
v -0.2 0.4 -0.3
v -0.1 0.4 -0.3
v 0.1 0.4 -0.3
v 0.2 0.4 -0.3
v 0.3 0.4 -0.3

# faces
f 5/2/1 2/2/1 1/2/1
f 6/2/1 2/2/1 5/2/1
f 7/2/1 4/2/1 3/2/1
f 8/2/1 4/2/1 7/2/1
f 9/1/1 6/1/1 5/1/1
f 10/1/1 6/1/1 9/1/1
f 11/1/1 8/1/1 7/1/1
f 12/1/1 8/1/1 11/1/1
f 15/1/1 14/1/1 13/1/1
f 16/1/1 14/1/1 15/1/1
f 21/2/1 18/2/1 17/2/1
f 22/2/1 18/2/1 21/2/1
f 23/2/1 20/2/1 19/2/1
f 24/2/1 20/2/1 23/2/1
f 29/2/1 26/2/1 25/2/1
f 30/2/1 26/2/1 29/2/1
f 33/2/1 28/2/1 27/2/1
f 34/2/1 28/2/1 33/2/1
f 35/1/1 31/1/1 30/1/1
f 36/1/1 31/1/1 35/1/1
f 37/1/1 33/1/1 32/1/1
f 38/1/1 33/1/1 37/1/1
f 39/2/2 40/2/2 43/2/2
f 43/2/2 40/2/2 44/2/2
f 41/2/2 42/2/2 45/2/2
f 45/2/2 42/2/2 46/2/2
f 47/1/2 48/1/2 51/1/2
f 51/1/2 48/1/2 52/1/2
f 49/1/2 50/1/2 53/1/2
f 53/1/2 50/1/2 54/1/2
f 55/1/2 56/1/2 59/1/2
f 59/1/2 56/1/2 60/1/2
f 57/1/2 58/1/2 61/1/2
f 61/1/2 58/1/2 62/1/2
f 63/2/2 64/2/2 67/2/2
f 67/2/2 64/2/2 68/2/2
f 65/2/2 66/2/2 69/2/2
f 69/2/2 66/2/2 70/2/2
f 67/1/2 68/1/2 71/1/2
f 68/1/2 69/1/2 71/1/2
f 69/1/2 70/1/2 71/1/2
f 71/1/2 70/1/2 72/1/2
f 72/1/2 70/1/2 73/1/2
f 73/1/2 70/1/2 74/1/2
f 71/3/2 72/3/2 75/3/2
f 75/3/2 72/3/2 76/3/2
f 73/3/2 74/3/2 77/3/2
f 77/3/2 74/3/2 78/3/2
f 82/2/3 80/2/3 79/2/3
f 83/1/3 81/1/3 80/1/3
f 83/2/3 80/2/3 82/2/3
f 84/1/3 81/1/3 83/1/3
f 85/1/3 81/1/3 84/1/3
f 86/1/3 84/1/3 83/1/3
f 89/1/3 86/1/3 83/1/3
f 90/2/3 87/2/3 86/2/3
f 90/1/3 86/1/3 89/1/3
f 91/2/3 87/2/3 90/2/3
f 92/2/3 89/2/3 88/2/3
f 93/1/3 90/1/3 89/1/3
f 93/2/3 89/2/3 92/2/3
f 94/3/3 91/3/3 90/3/3
f 94/1/3 90/1/3 93/1/3
f 95/3/3 91/3/3 94/3/3
f 98/2/3 97/2/3 96/2/3
f 99/2/3 97/2/3 98/2/3
f 103/2/3 101/2/3 100/2/3
f 104/1/3 102/1/3 101/1/3
f 104/2/3 101/2/3 103/2/3
f 105/1/3 102/1/3 104/1/3
f 106/1/3 102/1/3 105/1/3
f 107/1/3 105/1/3 104/1/3
f 108/1/3 105/1/3 107/1/3
f 113/1/3 110/1/3 109/1/3
f 114/2/3 111/2/3 110/2/3
f 114/1/3 110/1/3 113/1/3
f 115/2/3 111/2/3 114/2/3
f 116/2/3 113/2/3 112/2/3
f 117/2/3 113/2/3 116/2/3
f 118/3/3 115/3/3 114/3/3
f 119/3/3 115/3/3 118/3/3
f 120/2/4 121/2/4 123/2/4
f 121/1/4 122/1/4 124/1/4
f 123/2/4 121/2/4 124/2/4
f 124/1/4 122/1/4 125/1/4
f 125/1/4 122/1/4 126/1/4
f 124/1/4 125/1/4 127/1/4
f 127/1/4 125/1/4 128/1/4
f 129/1/4 130/1/4 133/1/4
f 130/2/4 131/2/4 134/2/4
f 133/1/4 130/1/4 134/1/4
f 134/2/4 131/2/4 135/2/4
f 132/2/4 133/2/4 136/2/4
f 136/2/4 133/2/4 137/2/4
f 134/3/4 135/3/4 138/3/4
f 138/3/4 135/3/4 139/3/4
f 140/2/4 141/2/4 142/2/4
f 142/2/4 141/2/4 143/2/4
f 144/2/4 145/2/4 147/2/4
f 145/1/4 146/1/4 148/1/4
f 147/2/4 145/2/4 148/2/4
f 148/1/4 146/1/4 149/1/4
f 149/1/4 146/1/4 150/1/4
f 148/1/4 149/1/4 151/1/4
f 148/1/4 151/1/4 154/1/4
f 151/2/4 152/2/4 155/2/4
f 154/1/4 151/1/4 155/1/4
f 155/2/4 152/2/4 156/2/4
f 153/2/4 154/2/4 157/2/4
f 154/1/4 155/1/4 158/1/4
f 157/2/4 154/2/4 158/2/4
f 155/3/4 156/3/4 159/3/4
f 158/1/4 155/1/4 159/1/4
f 159/3/4 156/3/4 160/3/4
f 165/2/5 162/2/5 161/2/5
f 166/2/5 162/2/5 165/2/5
f 167/2/5 164/2/5 163/2/5
f 168/2/5 164/2/5 167/2/5
f 173/2/5 170/2/5 169/2/5
f 174/2/5 170/2/5 173/2/5
f 175/2/5 172/2/5 171/2/5
f 176/2/5 172/2/5 175/2/5
f 179/1/5 178/1/5 177/1/5
f 180/1/5 178/1/5 179/1/5
f 181/1/5 178/1/5 180/1/5
f 182/1/5 178/1/5 181/1/5
f 184/1/5 181/1/5 180/1/5
f 185/1/5 183/1/5 182/1/5
f 186/1/5 184/1/5 180/1/5
f 186/2/5 185/2/5 184/2/5
f 187/1/5 183/1/5 185/1/5
f 187/2/5 185/2/5 186/2/5
f 189/1/5 186/1/5 180/1/5
f 190/1/5 186/1/5 189/1/5
f 191/1/5 183/1/5 187/1/5
f 192/1/5 183/1/5 191/1/5
f 193/1/5 190/1/5 189/1/5
f 193/1/5 189/1/5 188/1/5
f 193/1/5 191/1/5 190/1/5
f 194/1/5 191/1/5 193/1/5
f 195/1/6 196/1/6 197/1/6
f 197/1/6 196/1/6 198/1/6
f 198/1/6 196/1/6 199/1/6
f 198/1/6 199/1/6 202/1/6
f 200/1/6 201/1/6 203/1/6
f 198/1/6 202/1/6 204/1/6
f 202/2/6 203/2/6 204/2/6
f 203/1/6 201/1/6 205/1/6
f 204/2/6 203/2/6 205/2/6
f 198/1/6 204/1/6 207/1/6
f 207/1/6 204/1/6 208/1/6
f 205/1/6 201/1/6 209/1/6
f 209/1/6 201/1/6 210/1/6
f 207/1/6 208/1/6 211/1/6
f 206/1/6 207/1/6 211/1/6
f 211/1/6 208/1/6 212/1/6
f 213/1/6 214/1/6 218/1/6
f 218/1/6 214/1/6 219/1/6
f 215/2/6 216/2/6 220/2/6
f 216/3/6 217/3/6 221/3/6
f 220/2/6 216/2/6 221/2/6
f 221/3/6 217/3/6 222/3/6
f 223/1/6 224/1/6 228/1/6
f 228/1/6 224/1/6 229/1/6
f 225/2/6 226/2/6 230/2/6
f 226/3/6 227/3/6 231/3/6
f 230/2/6 226/2/6 231/2/6
f 231/3/6 227/3/6 232/3/6
